<?xml version="1.0" encoding="UTF-8"?>
<!DOCTYPE svg PUBLIC "-//W3C//DTD SVG 1.1//EN" "http://www.w3.org/Graphics/SVG/1.1/DTD/svg11.dtd">
<!-- Creator: CorelDRAW (Версия для OEM) -->
<svg xmlns="http://www.w3.org/2000/svg" xml:space="preserve" width="97.4945mm" height="59.1082mm" version="1.1" style="shape-rendering:geometricPrecision; text-rendering:geometricPrecision; image-rendering:optimizeQuality; fill-rule:evenodd; clip-rule:evenodd"
viewBox="0 0 9732.81 5900.73"
 xmlns:xlink="http://www.w3.org/1999/xlink"
 xmlns:xodm="http://www.corel.com/coreldraw/odm/2003">
 <defs>
  <style type="text/css">
   <![CDATA[
    .fil4 {fill:#271B8F;fill-rule:nonzero}
    .fil1 {fill:#30AB02;fill-rule:nonzero}
    .fil0 {fill:#EB265D;fill-rule:nonzero}
    .fil3 {fill:#FF4C00;fill-rule:nonzero}
    .fil2 {fill:#FF961D;fill-rule:nonzero}
    .fil6 {fill:white;fill-rule:nonzero}
    .fil5 {fill:url(#id0);fill-rule:nonzero}
    .fil7 {fill:url(#id1);fill-rule:nonzero}
    .fil8 {fill:url(#id2);fill-rule:nonzero}
   ]]>
  </style>
  <linearGradient id="id0" gradientUnits="userSpaceOnUse" x1="5895" y1="1701.62" x2="6969.67" y2="722.63">
   <stop offset="0" style="stop-opacity:1; stop-color:#FF961D"/>
   <stop offset="1" style="stop-opacity:1; stop-color:#FF591D"/>
  </linearGradient>
  <linearGradient id="id1" gradientUnits="userSpaceOnUse" x1="9385.33" y1="1797.86" x2="8495.36" y2="648.39">
   <stop offset="0" style="stop-opacity:1; stop-color:#EB265D"/>
   <stop offset="1" style="stop-opacity:1; stop-color:#870026"/>
  </linearGradient>
  <linearGradient id="id2" gradientUnits="userSpaceOnUse" x1="6957.53" y1="1286.06" x2="8375.86" y2="472.58">
   <stop offset="0" style="stop-opacity:1; stop-color:#30AB02"/>
   <stop offset="1" style="stop-opacity:1; stop-color:#016630"/>
  </linearGradient>
 </defs>
 <g id="Слой_x0020_1">
  <metadata id="CorelCorpID_0Corel-Layer"/>
  <g id="_2369527364096">
   <path class="fil0" d="M7778.23 2147.13c0,0 -265.93,74.47 -324.42,340.39 0,-265.92 188.81,-340.39 324.42,-340.39zm936.05 0c0,0 -265.93,74.47 -324.42,340.39 0,-265.92 188.79,-340.39 324.42,-340.39zm-1340.26 335.08l0 656.83c0,531.84 210.08,967.95 824.37,967.95 593.01,0 904.14,-420.16 904.14,-983.91l0 -627.6c0,-220.71 -178.18,-398.88 -398.89,-398.88 -287.2,0 -401.53,228.7 -401.53,476l2.65 542.48c0,82.44 13.31,194.13 -69.13,194.13 -71.8,0 -63.83,-143.59 -63.83,-215.39l2.68 -558.44c0,-239.34 -135.64,-452.07 -401.56,-452.07 -220.71,0 -398.89,178.16 -398.89,398.89z"/>
   <path class="fil1" d="M6230.57 2865.12c167.53,5.31 263.27,-15.95 263.27,220.71 0,223.38 -109.04,223.38 -263.27,223.38l0 -444.09zm-366.96 -717.99c0,0 -265.93,114.34 -324.44,380.26 0,-265.92 188.81,-380.26 324.44,-380.26zm-26.58 1935.92l95.72 0c731.29,0 1361.52,-122.33 1361.52,-978.6 0,-874.88 -600.97,-1015.81 -1308.32,-1015.81l-148.92 0c-199.45,0 -353.68,146.24 -390.92,335.05 -74.45,390.9 -74.45,933.38 0,1324.31 37.25,188.79 191.47,335.06 390.92,335.06z"/>
   <path class="fil2" d="M4204.24 2147.13c0,0 -265.92,74.47 -324.42,340.39 0,-265.92 188.81,-340.39 324.42,-340.39zm-420.15 563.76c-18.62,223.38 -23.94,521.21 -2.67,744.6l21.28 228.68c21.27,220.71 188.79,398.89 420.16,398.89l688.73 0c220.71,0 398.89,-178.18 398.89,-398.89 0,-194.13 -109.02,-396.21 -329.74,-396.21l-380.29 0 0 -50.53 329.76 0c98.39,0 180.82,-55.84 180.82,-154.24 0,-98.38 -87.75,-186.13 -180.82,-154.23l-329.76 109.02 0 -151.59 218.07 0c45.21,0 87.75,2.68 132.96,-5.31 188.81,-31.91 329.74,-202.09 329.74,-393.56 0,-220.71 -178.18,-398.88 -398.89,-398.88l-659.47 0c-231.37,0 -401.55,178.17 -420.16,398.88l-18.62 223.37z"/>
   <path class="fil3" d="M3411.79 2179.03c0,0 -308.46,23.94 -462.7,329.76 119.67,-305.82 345.7,-329.76 462.7,-329.76zm-1311 -31.91c0,0 -239.31,85.1 -295.16,335.08 13.28,-255.29 178.15,-335.08 295.16,-335.08zm611.63 978.6c-39.89,-313.78 -228.7,-1037.09 -590.36,-1037.09 -220.71,0 -398.87,178.17 -398.87,398.88 0,385.59 486.64,1603.52 1021.13,1603.52 553.12,0 954.66,-1204.65 954.66,-1603.52 0,-220.71 -178.18,-398.88 -398.89,-398.88 -348.35,0 -555.77,752.56 -587.68,1037.09z"/>
   <path class="fil4" d="M941.08 3547.87l-2.04 0c-10.42,0 -20.78,-0.15 -31.08,-0.47l-1.13 -0.02 -1.99 -0.06c-34.83,-0.83 -69.87,-2.42 -105.04,-4.9 49.97,-127.83 106.33,-239.27 165.44,-343.67 62.62,109.8 109.11,225.22 146.38,343.67 -56.42,4.01 -113.27,5.85 -170.55,5.45zm26.88 -1398.08c0,0 -226.03,10.64 -390.9,327.09 130.3,-316.45 273.89,-327.09 390.9,-327.09zm-252.62 1784.34c138.27,26.58 287.19,23.94 436.1,-2.68 74.45,98.41 191.46,159.58 319.1,159.58 220.71,0 398.89,-178.18 398.89,-398.89 0,-460.05 -422.81,-1271.11 -563.76,-1446.63 -77.12,-98.39 -204.76,-156.88 -337.72,-156.88 -119.66,0 -244.65,50.52 -324.42,143.59 -125,146.24 -643.55,999.86 -643.55,1459.91 0,220.71 178.18,398.89 398.89,398.89 124.98,0 241.99,-58.52 316.46,-156.9z"/>
   <path class="fil5" d="M5880.13 419.88c345.89,2.7 691.77,5.38 1037.66,8.07 86.59,-3.3 151.88,51.81 149.21,144.22 4.84,314.18 9.68,628.38 14.53,942.57 -1.35,88.38 -65.74,158.12 -135.04,160.77l-17.8 0.68 48.48 328.45 -280.32 -319.6 -718 27.39c-54.14,2.07 -104.13,-48.97 -114.86,-111.19 -38.77,-350.46 -77.57,-700.93 -116.34,-1051.4 -5.73,-87.28 67.36,-127.46 132.49,-129.95z"/>
   <path class="fil6" d="M6326.92 935.32c18.76,-60.77 111.64,-65.64 121.93,-13.62 10.43,52.74 -42.65,91.77 -109.2,77.92l39.81 163.29 108.37 -21.45 -9.5 -85.95c83.54,-29.29 108.53,-104.06 96.1,-166.9 -32.59,-164.72 -278.66,-186.6 -333.63,-1.55l86.12 48.27zm57.42 312.95c7.3,36.85 41.91,60.03 78.76,52.73 36.13,-7.15 59.31,-41.76 52.01,-78.61 -7.58,-38.29 -41.77,-59.3 -77.89,-52.15 -36.85,7.29 -60.46,39.74 -52.88,78.03z"/>
   <path class="fil7" d="M9620.77 537.84c-341.19,-56.93 -682.36,-113.87 -1023.54,-170.8 -84.73,-18.17 -158.54,24.88 -171.83,116.37 -58.89,308.65 -117.78,617.31 -176.67,925.98 -13.9,87.28 37.52,167.07 105.33,181.62l17.41 3.73 -104.32 315.19 331.17 -266.54 702.56 150.66c52.98,11.36 111.01,-30.29 132.29,-89.74 98.57,-338.55 197.14,-677.1 295.71,-1015.64 20.68,-84.98 -44.4,-137.17 -108.13,-150.83z"/>
   <path class="fil6" d="M8872.26 1112.11l130.24 37.45 107.22 -346.18 -144.38 -41.53 -93.07 350.26zm-30.91 91.49c-11.19,38.92 10.99,79.02 49.91,90.22 39.64,11.4 80.44,-10.58 91.63,-49.51 11.4,-39.63 -11.29,-80.64 -50.92,-92.04 -38.92,-11.19 -79.22,11.7 -90.63,51.33z"/>
   <path class="fil8" d="M7851.6 17.1c411.32,88.21 673.25,493.16 585.05,904.47 -87.17,406.44 -483.6,666.97 -889.85,587.98l-24.83 240.57 -151.35 -297.5c-315.51,-146.39 -499.5,-496.05 -423.49,-850.49 88.21,-411.32 493.15,-673.25 904.46,-585.04z"/>
   <polygon class="fil6" points="8048.35,708.24 7614.33,988.98 7418.66,686.47 7529.59,614.71 7653.5,806.29 7962.93,606.14 "/>
   <path class="fil3" d="M3709.33 1117.31l1775.01 -37.76 0 -12.27 -1775.01 -25.51c-20.74,-0.27 -37.76,16.99 -37.76,37.78l0 0c0,20.76 17.01,38.19 37.76,37.76zm-2618.27 390.34l4390.95 93.41 0 30.36 -4390.95 63.07c-51.35,0.72 -93.41,-42.03 -93.41,-93.41l0 -0.02c0,-51.37 42.06,-94.49 93.41,-93.41zm1937.78 -215.39l2418.12 51.44 0 16.71 -2418.12 34.74c-28.28,0.39 -51.43,-23.15 -51.43,-51.43l0 -0.02c0,-28.28 23.15,-52.03 51.43,-51.44z"/>
   <path class="fil3" d="M419.29 5891.75c333.93,0 509.13,-236.6 509.13,-554.05l0 -353.4c0,-124.29 -100.33,-224.62 -224.62,-224.62 -161.72,0 -226.11,128.78 -226.11,268.04l1.5 305.48c0,61.4 8.98,109.31 -59.9,109.31 -49.42,0 -82.36,-88.35 -194.67,-88.35 -124.29,0 -224.62,100.33 -224.62,224.62 0,205.15 244.08,312.96 419.28,312.96zm286.01 -1103.61c0,0 -149.74,41.93 -182.69,191.67 0,-149.74 106.32,-191.67 182.69,-191.67zm283.02 188.68l0 369.87c0,299.49 118.3,545.07 464.21,545.07 333.93,0 509.13,-236.6 509.13,-554.05l0 -353.4c0,-124.29 -100.33,-224.62 -224.62,-224.62 -161.72,0 -226.11,128.78 -226.11,268.04l1.5 305.48c0,46.42 7.49,109.31 -38.93,109.31 -40.43,0 -35.94,-80.86 -35.94,-121.29l1.5 -314.46c0,-134.77 -76.37,-254.56 -226.11,-254.56 -124.29,0 -224.62,100.33 -224.62,224.62zm754.71 -188.68c0,0 -149.74,41.93 -182.69,191.67 0,-149.74 106.32,-191.67 182.69,-191.67zm-527.1 0c0,0 -149.74,41.93 -182.69,191.67 0,-149.74 106.32,-191.67 182.69,-191.67zm1567.82 1090.14c112.31,0 199.16,-82.36 220.12,-188.68 41.93,-220.12 41.93,-525.6 0,-745.72 -20.96,-106.32 -107.82,-188.68 -220.12,-188.68 -124.29,0 -224.62,100.33 -224.62,224.62l0 119.8c-26.95,-50.91 -61.4,-191.67 -95.84,-239.59 -40.43,-62.89 -109.31,-104.82 -190.17,-104.82 -112.31,0 -199.16,82.36 -220.12,188.68 -41.93,220.12 -41.93,525.6 0,745.72 20.96,106.32 107.82,188.68 220.12,188.68 124.29,0 224.62,-100.33 224.62,-224.62l0 -196.16c19.47,38.93 37.44,227.61 94.34,314.46 44.92,67.38 109.31,106.32 191.67,106.32zm0 -1090.14c0,0 -149.74,41.93 -182.69,191.67 0,-149.74 106.32,-191.67 182.69,-191.67zm-516.62 0c0,0 -149.74,41.93 -182.69,191.67 0,-149.74 106.32,-191.67 182.69,-191.67zm1368.66 718.77c7.49,-107.82 8.98,-251.57 1.5,-359.39l-2.99 -41.93c61.4,-38.93 95.84,-88.35 95.84,-163.22 0,-103.32 -83.86,-187.18 -187.18,-187.18l-268.04 0c-103.32,0 -187.18,83.86 -187.18,187.18 0,70.38 38.93,133.27 97.33,164.72l-2.99 40.43c-7.49,107.82 -5.99,251.57 1.5,359.39l1.5 19.47c-58.4,38.93 -97.33,92.84 -97.33,164.72 0,103.32 83.86,187.18 187.18,187.18l268.04 0c103.32,0 187.18,-83.86 187.18,-187.18 0,-70.38 -38.93,-131.77 -95.84,-163.22l1.5 -20.96zm-360.88 -718.77c0,0 -122.79,13.48 -154.24,154.24 7.49,-143.75 88.35,-154.24 154.24,-154.24zm1015.26 1112.6c323.45,0 587,-241.09 587,-575.02 0,-327.94 -238.09,-579.51 -569.03,-579.51 -311.47,0 -578.01,239.59 -578.01,557.05 0,318.95 220.12,597.48 560.04,597.48zm0 -1112.6c-139.26,29.95 -321.95,86.85 -468.7,341.42 65.89,-221.62 274.03,-342.91 468.7,-341.42zm-52.41 534.59c0,-41.93 20.96,-67.38 62.89,-67.38 43.43,0 68.88,26.95 68.88,67.38 0,46.42 -22.46,68.88 -68.88,68.88 -35.94,0 -62.89,-35.94 -62.89,-68.88zm1173.99 151.24c77.87,0 -16.47,113.81 5.99,265.05 11.98,82.36 103.32,139.26 187.18,139.26 187.18,0 217.13,-25.46 217.13,-187.18 0,-122.79 14.97,-303.98 -85.35,-323.45 53.91,-62.89 85.35,-149.74 85.35,-259.06 0,-52.41 -11.98,-106.32 -37.44,-152.74 -89.85,-163.22 -286.01,-200.66 -458.22,-200.66l-152.74 0c-110.81,0 -199.16,79.36 -220.12,188.68 -41.93,220.12 -41.93,525.6 0,745.72 14.97,73.37 59.9,134.77 124.29,166.22 26.95,14.97 58.4,23.96 95.84,23.96 124.29,0 224.62,-100.33 224.62,-224.62 0,-29.95 -11.98,-49.42 -19.47,-79.36 -7.49,-26.95 5.99,-101.83 32.94,-101.83zm-241.09 -685.83c0,0 -130.28,53.91 -193.17,205.15 29.95,-151.24 116.8,-205.15 193.17,-205.15zm227.61 305.48c40.43,2.99 79.36,11.98 79.36,34.44 0,19.47 -40.43,26.95 -79.36,29.95l0 -64.39z"/>
  </g>
 </g>
</svg>
